<?xml version="1.0" standalone="no"?>
<!DOCTYPE svg PUBLIC "-//W3C//DTD SVG 20010904//EN"
 "http://www.w3.org/TR/2001/REC-SVG-20010904/DTD/svg10.dtd">
<svg version="1.0" xmlns="http://www.w3.org/2000/svg"
 width="316.000000pt" height="316.000000pt" viewBox="0 0 316.000000 316.000000"
 preserveAspectRatio="xMidYMid meet">
<metadata>
Created by potrace 1.14, written by Peter Selinger 2001-2017
</metadata>
<g transform="translate(0.000000,316.000000) scale(0.100000,-0.100000)"
fill="#000000" stroke="none">
<path d="M1801 1929 c-143 -31 -173 -266 -41 -334 87 -45 197 -8 229 78 9 23
8 27 -7 28 -43 3 -68 -5 -89 -27 -13 -15 -33 -24 -50 -24 -55 1 -82 43 -79
119 4 75 79 118 126 71 11 -11 20 -24 20 -29 0 -6 18 -9 40 -9 35 0 40 3 40
23 0 67 -102 123 -189 104z"/>
<path d="M257 1923 c-5 -8 -69 -201 -73 -218 -1 -5 -12 -36 -23 -68 l-20 -58
47 3 c43 3 47 5 56 36 9 33 12 34 81 34 49 0 53 -2 60 -33 8 -35 20 -42 68
-37 l36 3 -58 170 -58 170 -55 3 c-31 2 -58 -1 -61 -5z m89 -200 c-7 -7 -55
-7 -62 0 -3 3 2 31 12 62 l18 57 19 -57 c11 -31 17 -59 13 -62z"/>
<path d="M529 1918 c-1 -7 -2 -86 -3 -176 l-1 -162 43 0 42 0 0 108 1 107 42
-105 c38 -95 45 -105 70 -108 19 -2 29 2 33 15 3 10 9 27 14 38 4 11 18 47 31
80 12 33 25 63 28 67 4 4 6 -40 6 -97 l-1 -105 42 0 42 0 -1 175 0 175 -53 0
-52 0 -42 -106 c-24 -58 -46 -102 -51 -97 -4 4 -25 51 -46 103 l-39 95 -52 3
c-37 2 -52 -1 -53 -10z"/>
<path d="M970 1754 l0 -175 42 3 43 3 0 68 0 67 67 0 68 0 0 -70 0 -70 43 0
43 0 0 173 -1 172 -42 3 -43 3 0 -70 0 -71 -69 0 -69 0 3 58 c3 76 -1 82 -46
82 l-39 0 0 -176z"/>
<path d="M1330 1754 l0 -175 37 3 c34 3 41 10 102 98 l66 95 3 -98 3 -98 42 3
42 3 1 173 1 172 -37 0 c-36 0 -40 -3 -105 -100 -38 -55 -70 -100 -72 -100 -3
0 -4 24 -3 53 1 28 1 73 1 100 l-1 47 -40 0 -40 0 0 -176z"/>
<path d="M2030 1895 l0 -35 56 0 55 0 -1 -47 c-1 -27 -1 -90 -1 -140 l1 -93
40 0 40 0 0 140 0 140 55 0 55 0 0 35 0 35 -150 0 -150 0 0 -35z"/>
<path d="M2370 1754 l0 -175 38 3 c35 3 41 9 105 103 l67 99 0 -102 0 -102 43
0 44 0 0 175 0 175 -37 0 c-36 0 -40 -3 -105 -100 -38 -55 -70 -100 -72 -100
-3 0 -4 26 -3 58 1 31 1 76 1 100 l-1 42 -40 0 -40 0 0 -176z"/>
<path d="M2803 1923 c-24 -5 -72 -56 -74 -79 -1 -8 -1 -23 -1 -34 0 -40 3 -48
28 -75 l27 -29 -32 -57 c-17 -31 -31 -59 -31 -63 0 -3 20 -6 44 -6 43 0 44 1
75 60 22 42 38 60 52 60 17 0 19 -7 19 -60 l0 -60 44 0 44 0 0 175 -1 175 -86
-1 c-47 -1 -96 -4 -108 -6z m109 -97 c6 -49 1 -56 -42 -56 -43 0 -65 24 -53
57 9 25 23 33 59 33 29 0 32 -3 36 -34z"/>
</g>
</svg>
